PathFileType	4	(X/Y/Z)	c:/Users/goper/Files/vsCode/490R/osim_files/A01/A01_Fast_02.trc
DataRate	CameraRate	NumFrames	NumMarkers	Units                	OrigDataRate	OrigDataStartFrame	OrigNumFrames
120.00	120.00	4	36	mm	120.0	1181	1574
                Frame#	Time	Mobility_markerset:LPSIS			Mobility_markerset:LASIS			Mobility_markerset:LTH1			Mobility_markerset:LTH2			Mobility_markerset:LTH3			Mobility_markerset:LTH4			Mobility_markerset:LLFE			Mobility_markerset:LMFE			Mobility_markerset:LSH1			Mobility_markerset:LSH2			Mobility_markerset:LSH3			Mobility_markerset:LSH4			Mobility_markerset:LLMAL			Mobility_markerset:LMMAL			Mobility_markerset:LCAL			Mobility_markerset:LMTP5			Mobility_markerset:LTOE			Mobility_markerset:LMTP1			Mobility_markerset:RPSIS			Mobility_markerset:RASIS			Mobility_markerset:RTH1			Mobility_markerset:RTH2			Mobility_markerset:RTH3			Mobility_markerset:RTH4			Mobility_markerset:RLFE			Mobility_markerset:RMFE			Mobility_markerset:RSH1			Mobility_markerset:RSH2			Mobility_markerset:RSH3			Mobility_markerset:RSH4			Mobility_markerset:RLMAL			Mobility_markerset:RMMAL			Mobility_markerset:RCAL			Mobility_markerset:RMTP1			Mobility_markerset:RTOE			Mobility_markerset:RMTP5		
		X1	Y1	Z1	X2	Y2	Z2	X3	Y3	Z3	X4	Y4	Z4	X5	Y5	Z5	X6	Y6	Z6	X7	Y7	Z7	X8	Y8	Z8	X9	Y9	Z9	X10	Y10	Z10	X11	Y11	Z11	X12	Y12	Z12	X13	Y13	Z13	X14	Y14	Z14	X15	Y15	Z15	X16	Y16	Z16	X17	Y17	Z17	X18	Y18	Z18	X19	Y19	Z19	X20	Y20	Z20	X21	Y21	Z21	X22	Y22	Z22	X23	Y23	Z23	X24	Y24	Z24	X25	Y25	Z25	X26	Y26	Z26	X27	Y27	Z27	X28	Y28	Z28	X29	Y29	Z29	X30	Y30	Z30	X31	Y31	Z31	X32	Y32	Z32	X33	Y33	Z33	X34	Y34	Z34	X35	Y35	Z35	X36	Y36	Z36

1181	9.83333	-4294.68848	1058.60779	752.93494	0.00000	0.00000	0.00000	0.00000	0.00000	0.00000	0.00000	0.00000	0.00000	-4188.04980	364.95334	790.31635	0.00000	0.00000	0.00000	0.00000	0.00000	0.00000	-4342.20459	538.57861	819.57672	-1361.90808	1326.27832	2999.18677	0.00000	0.00000	0.00000	0.00000	0.00000	0.00000	0.00000	0.00000	0.00000	-4228.04883	103.64097	661.76715	-4303.24756	110.22367	614.17291	-4231.25537	89.87356	570.33319	-4284.12939	44.25069	786.16608	-4353.41992	61.33857	777.17267	0.00000	0.00000	0.00000	-4395.07129	1053.18542	775.85144	0.00000	0.00000	0.00000	-4523.76709	703.23346	1027.49097	-4527.35840	661.43750	1036.29602	-4543.52100	685.32520	970.73529	-4542.77344	645.43567	988.97491	-4501.18848	523.42877	1073.46497	0.00000	0.00000	0.00000	-4558.23291	318.65833	1051.54663	0.00000	0.00000	0.00000	-4546.61816	335.77737	1108.92346	-4552.63428	292.04782	1119.95044	-4551.33105	107.53035	1151.94775	0.00000	0.00000	0.00000	-4520.88770	55.56930	1103.68518	0.00000	0.00000	0.00000	-4453.58398	143.38608	1314.94482	-4528.94531	93.06847	1303.97681
1182	9.84167	-4299.02002	1057.98267	759.69275	0.00000	0.00000	0.00000	0.00000	0.00000	0.00000	0.00000	0.00000	0.00000	-4189.46826	364.43478	793.12738	0.00000	0.00000	0.00000	0.00000	0.00000	0.00000	-4344.25732	537.61456	824.19470	-1362.14636	1326.32886	2999.45410	0.00000	0.00000	0.00000	0.00000	0.00000	0.00000	0.00000	0.00000	0.00000	-4228.60742	104.41368	662.23206	-4304.09082	111.11251	614.80139	-4232.16602	91.56014	570.61584	-4281.39795	42.56846	786.39233	-4353.15967	60.62761	777.42230	0.00000	0.00000	0.00000	-4399.07861	1052.70471	783.62872	0.00000	0.00000	0.00000	-4525.07812	703.47162	1037.31226	-4528.14502	661.71381	1046.55359	-4544.50439	684.79108	980.70990	-4543.31006	645.08380	999.37231	-4498.95654	522.02155	1082.49792	0.00000	0.00000	0.00000	-4556.46094	316.74957	1058.17419	0.00000	0.00000	0.00000	-4544.33301	333.21463	1115.67004	-4550.17773	289.34760	1126.23645	-4548.22217	105.04716	1156.46448	0.00000	0.00000	0.00000	-4519.07178	55.25377	1106.95068	-4462.11719	154.89978	1263.23181	-4448.27539	138.91298	1318.21777	-4522.94971	88.53172	1307.82581
1183	9.85000	-4303.04785	1057.23828	766.73047	0.00000	0.00000	0.00000	0.00000	0.00000	0.00000	0.00000	0.00000	0.00000	-4190.90234	364.07327	796.11298	0.00000	0.00000	0.00000	0.00000	0.00000	0.00000	-4346.23926	536.58105	829.10663	0.00000	0.00000	0.00000	0.00000	0.00000	0.00000	-4091.56055	653.58527	848.24561	0.00000	0.00000	0.00000	-4229.36816	105.40829	662.80341	-4305.09814	112.19648	615.52130	-4233.05273	93.31686	571.06604	-4281.02344	42.30154	786.41150	-4353.64990	61.01014	777.72003	0.00000	0.00000	0.00000	-4402.78955	1052.16345	791.46790	0.00000	0.00000	0.00000	-4526.11670	703.33527	1047.34045	-4528.39502	661.64600	1056.94788	-4545.07910	683.70856	990.89423	-4543.10400	644.20300	1009.94684	-4496.95947	520.28528	1090.81140	0.00000	0.00000	0.00000	-4554.64893	314.46799	1063.98010	0.00000	0.00000	0.00000	-4542.12354	330.39404	1121.55237	-4547.66699	286.30139	1131.68042	-4545.31006	103.32521	1160.11255	0.00000	0.00000	0.00000	-4518.19531	55.44436	1109.20386	-4464.27393	157.29608	1260.83777	-4440.94336	133.75142	1319.54700	-4516.82422	83.40381	1310.55811
1184	9.85833	-4306.88965	1056.53809	773.85883	0.00000	0.00000	0.00000	0.00000	0.00000	0.00000	0.00000	0.00000	0.00000	-4192.30615	363.81943	799.25623	0.00000	0.00000	0.00000	0.00000	0.00000	0.00000	-4348.20752	535.62054	834.31079	0.00000	0.00000	0.00000	0.00000	0.00000	0.00000	-4093.64624	653.27765	852.85815	0.00000	0.00000	0.00000	-4230.05322	106.41998	663.37036	-4306.16309	113.42642	616.34735	-4234.18359	95.34863	571.49689	-4281.00244	42.26899	786.38660	-4353.76172	60.83239	778.08112	0.00000	0.00000	0.00000	-4406.18262	1051.55847	799.42273	0.00000	0.00000	0.00000	-4526.89844	702.68750	1057.21851	-4528.14111	661.02258	1067.18286	-4545.36914	682.11169	1000.94122	-4542.41309	642.84570	1020.32227	-4495.23779	518.23785	1098.30664	0.00000	0.00000	0.00000	-4553.05811	312.21494	1069.14807	0.00000	0.00000	0.00000	-4540.23730	327.50928	1126.86194	-4545.55811	283.22299	1136.53430	-4542.98926	100.73230	1163.16382	0.00000	0.00000	0.00000	-4517.78320	55.02118	1111.07056	0.00000	0.00000	0.00000	-4433.79980	126.73457	1320.73755	-4510.47461	77.78802	1312.47144
